<svg width="40" height="39" viewBox="0 0 40 39" fill="none" xmlns="http://www.w3.org/2000/svg">
<rect width="10.4733" height="2.44556" rx="0.698732" transform="matrix(1 0 0 -1 5.65234 25.3229)" fill="#ECB365" fill-opacity="0.5"/>
<rect width="12.9669" height="2.44556" rx="0.698732" transform="matrix(1 0 0 -1 0 20.4318)" fill="#ECB365" fill-opacity="0.5"/>
<rect width="14.6293" height="2.44556" rx="0.698732" transform="matrix(1 0 0 -1 3.82373 15.5406)" fill="#ECB365" fill-opacity="0.5"/>
<path fill-rule="evenodd" clip-rule="evenodd" d="M30.8921 13.9379C30.5194 13.838 30.2982 13.4549 30.3981 13.0821L33.6667 0.883281C33.8707 0.122021 32.8548 -0.341865 32.4131 0.310872L18.4222 20.9885C18.1531 21.3863 18.3562 21.9307 18.8201 22.055L26.7042 24.1675C27.077 24.2674 27.2982 24.6506 27.1983 25.0233L23.9297 37.2221C23.7257 37.9834 24.7416 38.4473 25.1833 37.7945L39.1742 17.1169C39.4433 16.7192 39.2402 16.1747 38.7763 16.0504L30.8921 13.9379Z" fill="#ECB365"/>
</svg>
