<svg width="1200" height="1200" viewBox="0 0 1200 1200" fill="none" xmlns="http://www.w3.org/2000/svg">
<path d="M929.516 240H360V-0.000244141H1200C1200 80.806 1191.84 161.206 1175.75 240C1160.47 314.867 1138.04 388.284 1108.66 459.22C1066.13 561.891 1009.63 657.946 940.94 744.736L1200 1198.85V1200H924.349L766.498 923.298L766.497 923.299L645.269 710.794C656.697 700.419 667.885 689.759 678.822 678.822C767.967 589.678 838.68 483.849 886.924 367.376C904.116 325.871 918.334 283.305 929.516 240Z" fill="white"/>
<path d="M-0.000170898 -0.000244141H240V929.516C283.305 918.334 325.872 904.116 367.376 886.924C431.987 860.161 493.322 826.485 550.351 786.583L669.678 995.756C603.613 1040.19 533.131 1078.04 459.22 1108.66C388.284 1138.04 314.868 1160.47 240 1175.75C161.206 1191.84 80.8059 1200 -0.000244141 1200L-0.000170898 -0.000244141Z" fill="white"/>
</svg>
