<svg width="21" height="20" viewBox="0 0 21 20" fill="none" xmlns="http://www.w3.org/2000/svg">
<g clip-path="url(#clip0_100_191)">
<path d="M2.29687 2.29167C2.29687 2.12591 2.23103 1.96694 2.11382 1.84973C1.99661 1.73252 1.83764 1.66667 1.67187 1.66667C1.50611 1.66667 1.34714 1.73252 1.22993 1.84973C1.11272 1.96694 1.04688 2.12591 1.04688 2.29167V17.7083C1.04688 18.0533 1.32687 18.3333 1.67187 18.3333H16.8802C17.046 18.3333 17.2049 18.2675 17.3221 18.1503C17.4394 18.0331 17.5052 17.8741 17.5052 17.7083C17.5052 17.5426 17.4394 17.3836 17.3221 17.2664C17.2049 17.1492 17.046 17.0833 16.8802 17.0833H2.29687V2.29167Z" fill="#ECB365" stroke="#ECB365"/>
<path d="M18.7805 6.48333C18.8909 6.36485 18.951 6.20814 18.9481 6.04623C18.9453 5.88431 18.8797 5.72982 18.7652 5.61531C18.6507 5.5008 18.4962 5.43521 18.3343 5.43235C18.1723 5.42949 18.0156 5.48959 17.8972 5.59999L13.1305 10.3667L10.0305 7.26666C9.91331 7.14962 9.75446 7.08388 9.58883 7.08388C9.42321 7.08388 9.26435 7.14962 9.14717 7.26666L4.14717 12.2667C4.08576 12.3239 4.03651 12.3929 4.00235 12.4695C3.96819 12.5462 3.94982 12.629 3.94834 12.7129C3.94686 12.7968 3.9623 12.8802 3.99373 12.958C4.02516 13.0358 4.07195 13.1065 4.1313 13.1659C4.19065 13.2252 4.26134 13.272 4.33917 13.3034C4.41699 13.3349 4.50035 13.3503 4.58427 13.3488C4.66819 13.3473 4.75095 13.329 4.82761 13.2948C4.90428 13.2607 4.97328 13.2114 5.0305 13.15L9.58883 8.59166L12.6888 11.6917C12.806 11.8087 12.9649 11.8744 13.1305 11.8744C13.2961 11.8744 13.455 11.8087 13.5722 11.6917L18.7805 6.48333Z" fill="#ECB365" stroke="#ECB365"/>
</g>
<defs>
<clipPath id="clip0_100_191">
<rect width="20" height="20" fill="white" transform="translate(0.213867)"/>
</clipPath>
</defs>
</svg>
