<svg width="174" height="174" viewBox="0 0 174 174" fill="none" xmlns="http://www.w3.org/2000/svg">
<g clip-path="url(#clip0_341_5)">
<path d="M162 -0.5H11.9609C5.08594 -0.5 -0.5 5.16406 -0.5 12.1172V161.883C-0.5 168.836 5.08594 174.5 11.9609 174.5H162C168.875 174.5 174.5 168.836 174.5 161.883V12.1172C174.5 5.16406 168.875 -0.5 162 -0.5ZM52.3906 149.5H26.4531V65.9844H52.4297V149.5H52.3906ZM39.4219 54.5781C31.1016 54.5781 24.3828 47.8203 24.3828 39.5391C24.3828 31.2578 31.1016 24.5 39.4219 24.5C47.7031 24.5 54.4609 31.2578 54.4609 39.5391C54.4609 47.8594 47.7422 54.5781 39.4219 54.5781ZM149.617 149.5H123.68V108.875C123.68 99.1875 123.484 86.7266 110.203 86.7266C96.6875 86.7266 94.6172 97.2734 94.6172 108.172V149.5H68.6797V65.9844H93.5625V77.3906H93.9141C97.3906 70.8281 105.867 63.9141 118.484 63.9141C144.734 63.9141 149.617 81.2187 149.617 103.719V149.5Z" fill="white"/>
</g>
<defs>
<clipPath id="clip0_341_5">
<rect width="174" height="174" fill="white"/>
</clipPath>
</defs>
</svg>
